<?xml version="1.0" standalone="no"?>
<!DOCTYPE svg PUBLIC "-//W3C//DTD SVG 20010904//EN"
 "http://www.w3.org/TR/2001/REC-SVG-20010904/DTD/svg10.dtd">
<svg version="1.0" xmlns="http://www.w3.org/2000/svg"
 width="16.000000pt" height="16.000000pt" viewBox="0 0 16.000000 16.000000"
 preserveAspectRatio="xMidYMid meet">
<metadata>
Created by potrace 1.11, written by Peter Selinger 2001-2013
</metadata>
<g transform="translate(0.000000,16.000000) scale(0.005333,-0.005333)"
fill="#000000" stroke="none">
<path d="M2097 2234 c-1 -1 -36 -4 -77 -7 -126 -11 -227 -45 -332 -114 -174
-114 -270 -314 -268 -558 0 -87 2 -104 14 -173 22 -119 89 -222 202 -312 132
-105 262 -151 429 -153 139 -2 216 10 327 49 40 14 92 31 115 37 l42 10 26
116 c15 64 31 131 37 149 5 18 7 36 4 39 -8 8 -4 13 -70 -93 -119 -195 -219
-265 -394 -279 -197 -16 -360 67 -467 239 -53 86 -80 164 -95 274 -12 88 -7
264 9 320 5 18 9 33 8 35 -1 1 9 30 22 64 46 123 190 261 318 304 117 39 290
28 398 -26 48 -24 53 -30 135 -180 46 -85 87 -150 90 -145 3 5 5 38 3 72 -8
198 -13 281 -17 285 -3 3 -26 -4 -51 -16 -56 -26 -51 -26 -120 4 -69 31 -167
55 -236 58 -28 1 -51 2 -52 1z"/>
<path d="M900 2175 c-12 -19 -35 -43 -51 -52 -27 -16 -30 -22 -24 -51 5 -26
-8 -72 -56 -205 -34 -95 -83 -233 -109 -307 -81 -227 -90 -251 -137 -370 -72
-181 -98 -214 -185 -232 -32 -7 -58 -16 -58 -20 0 -4 97 -8 215 -8 208 0 278
11 155 23 -33 4 -75 13 -95 21 -64 27 -59 61 43 351 l57 160 184 0 185 0 68
-205 c37 -113 70 -218 72 -235 7 -63 -32 -95 -115 -95 -22 0 -39 -4 -39 -10 0
-6 94 -10 262 -10 156 0 258 4 252 9 -5 5 -30 11 -56 13 -92 9 -114 41 -196
283 -28 83 -99 290 -158 460 -58 171 -122 356 -141 413 -19 56 -39 102 -43
102 -5 0 -18 -16 -30 -35z m30 -421 c44 -131 80 -241 80 -244 0 -3 -76 -5
-170 -5 -127 0 -170 3 -170 12 0 7 9 36 21 65 11 29 30 80 41 113 10 33 23 69
28 80 5 11 22 58 39 105 38 110 43 122 48 117 2 -2 39 -112 83 -243z"/>
</g>
</svg>
